<svg width="24" height="24" viewBox="0 0 24 24" fill="none" xmlns="http://www.w3.org/2000/svg">
<path d="M15.1714 10C14.731 10 14.3425 9.71197 14.2145 9.29064L12.9568 5.15007C12.6695 4.20425 11.3305 4.20425 11.0432 5.15007L9.78547 9.29064C9.65749 9.71197 9.26897 10 8.82864 10H5.12293C4.14986 10 3.74999 11.2488 4.54207 11.814L7.59193 13.9904C7.94296 14.2409 8.09387 14.6882 7.96633 15.1001L6.75239 19.0209C6.46471 19.95 7.53845 20.7014 8.3128 20.1127L11.3953 17.7696C11.7527 17.4979 12.2474 17.4978 12.605 17.7691L15.6991 20.1172C16.4736 20.705 17.5464 19.9536 17.2588 19.0249L16.0435 15.0996C15.916 14.6879 16.0667 14.2408 16.4173 13.9902L19.4627 11.8136C20.254 11.248 19.8539 10 18.8812 10H15.1714Z" fill="#FCDF53"/>
</svg>
