<svg width="124" height="60" viewBox="0 0 124 60" fill="none" xmlns="http://www.w3.org/2000/svg">
<path d="M5.93252 0C8.3571 0 10.5377 1.4754 11.4394 3.72604L14.0182 10.1621C19.4472 23.7117 38.6277 23.7117 44.0566 10.1621L46.6294 3.74107C47.5348 1.48135 49.7242 0 52.1585 0C55.4482 0 58.115 2.66679 58.115 5.95644V54.5455C58.115 56.6719 56.3911 58.3957 54.2647 58.3957C52.1383 58.3957 50.4144 56.6719 50.4144 54.5455V35.6551C50.5592 30.7346 43.7596 29.3046 41.9101 33.8665L33.0729 55.6636C32.4033 57.3151 30.7992 58.3957 29.0171 58.3957C27.2353 58.3957 25.6313 57.3154 24.9616 55.6642L16.1236 33.8751C14.2895 29.3531 7.54836 30.7776 7.70053 35.6551V54.5455C7.70053 56.6719 5.97671 58.3957 3.85027 58.3957C1.72382 58.3957 0 56.6719 0 54.5455V5.93252C0 2.65608 2.65608 0 5.93252 0Z" fill="url(#paint0_linear_344_111)"/>
<path d="M102.908 40.6684C105.246 40.6684 107.096 42.7236 106.481 44.9802C105.356 49.1127 103.343 52.4481 100.442 54.9866C96.6184 58.3289 91.5248 60 85.1612 60C78.2628 60 72.728 57.5267 68.5569 52.5802C64.4125 47.6337 62.3403 41.016 62.3403 32.7273V27.1123C62.3403 21.6845 63.3029 16.9118 65.228 12.7941C67.1799 8.67647 69.9339 5.52139 73.49 3.32888C77.0462 1.10963 81.1638 0 85.843 0C92.0462 0 97.0194 1.73797 100.763 5.2139C103.586 7.81535 105.52 11.1773 106.563 15.2997C107.133 17.5515 105.284 19.5722 102.961 19.5722C101.009 19.5722 99.3949 18.1243 98.8878 16.2392C98.0899 13.2727 96.8566 11.0148 95.1879 9.46524C92.9686 7.37968 89.8537 6.3369 85.843 6.3369C80.6224 6.3369 84.1476 15.8922 83.858 21.1047C83.8193 21.8015 83.7951 22.5858 83.7951 23.4788V33.1942C83.7951 35.0068 83.7951 36.394 83.7951 37.5885C83.7951 43.4215 79.3282 53.7032 85.1612 53.7032C89.4392 53.7032 92.7146 52.7406 94.9874 50.8155C96.7243 49.3411 98.0189 47.0505 98.8709 43.9436C99.3806 42.0853 100.981 40.6684 102.908 40.6684Z" fill="url(#paint1_linear_344_111)"/>
<path d="M90.2353 33.5464C90.2353 36.3077 92.4739 38.5463 95.2352 38.5463H99.0975C99.7258 38.5463 100.235 39.0556 100.235 39.6839C100.235 40.3122 99.7258 40.8216 99.0975 40.8216H93.8367C90.303 40.8216 87.4383 37.9569 87.4383 34.4232V21.1191C87.4383 20.3467 88.0644 19.7206 88.8368 19.7206C89.6092 19.7206 90.2353 20.3467 90.2353 21.1191V33.5464Z" fill="url(#paint2_linear_344_111)"/>
<path d="M105.902 39.481C105.902 40.2214 105.301 40.8216 104.561 40.8216C103.821 40.8216 103.221 40.2214 103.221 39.481V26.4813C103.221 25.741 103.821 25.1408 104.561 25.1408C105.301 25.1408 105.902 25.741 105.902 26.4813V39.481ZM103.003 20.9814C103.003 20.5467 103.134 20.1795 103.394 19.88C103.665 19.5805 104.061 19.4308 104.583 19.4308C105.105 19.4308 105.501 19.5805 105.771 19.88C106.042 20.1795 106.177 20.5467 106.177 20.9814C106.177 21.4162 106.042 21.7785 105.771 22.0684C105.501 22.3582 105.105 22.5032 104.583 22.5032C104.061 22.5032 103.665 22.3582 103.394 22.0684C103.134 21.7785 103.003 21.4162 103.003 20.9814Z" fill="url(#paint3_linear_344_111)"/>
<path d="M123.452 33.1551C123.452 35.5415 122.906 37.4642 121.814 38.9231C120.723 40.382 119.244 41.1114 117.38 41.1114C115.618 41.1114 112.887 42.536 112.887 44.2971V45.5099C112.887 46.2502 112.287 46.8504 111.546 46.8504C110.806 46.8504 110.206 46.2502 110.206 45.5099V26.4112C110.206 25.7096 110.775 25.1408 111.476 25.1408H112.187C112.451 25.1408 112.67 25.3445 112.69 25.608C112.724 26.0643 113.33 26.2665 113.692 25.9863C114.669 25.2294 115.883 24.8509 117.336 24.8509C119.22 24.8509 120.708 25.5611 121.8 26.9813C122.901 28.4016 123.452 30.3774 123.452 32.9087V33.1551ZM120.771 32.8507C120.771 31.0827 120.394 29.6866 119.64 28.6624C118.887 27.6383 117.853 27.1262 116.539 27.1262C116.291 27.1262 116.053 27.143 115.823 27.1766C113.388 27.534 112.887 30.5789 112.887 33.0405C112.887 35.4911 113.392 38.508 115.816 38.8694C116.056 38.9052 116.307 38.9231 116.568 38.9231C117.853 38.9231 118.872 38.4158 119.626 37.4014C120.389 36.3772 120.771 34.8604 120.771 32.8507Z" fill="url(#paint4_linear_344_111)"/>
<defs>
<linearGradient id="paint0_linear_344_111" x1="29.0575" y1="0" x2="29.0575" y2="58.3957" gradientUnits="userSpaceOnUse">
<stop stop-color="#EDDA30"/>
<stop offset="1" stop-color="#EBBF25"/>
</linearGradient>
<linearGradient id="paint1_linear_344_111" x1="62.3403" y1="59.9114" x2="113.751" y2="39.6711" gradientUnits="userSpaceOnUse">
<stop stop-color="#E4AC1B"/>
<stop offset="1" stop-color="#C3D118"/>
</linearGradient>
<linearGradient id="paint2_linear_344_111" x1="89.4623" y1="19.4308" x2="123.061" y2="38.8615" gradientUnits="userSpaceOnUse">
<stop stop-color="#D3C01A"/>
<stop offset="0.0001" stop-color="#C8B512"/>
<stop offset="1" stop-color="#DCB71B"/>
</linearGradient>
<linearGradient id="paint3_linear_344_111" x1="89.4623" y1="19.4308" x2="123.061" y2="38.8615" gradientUnits="userSpaceOnUse">
<stop stop-color="#D3C01A"/>
<stop offset="0.0001" stop-color="#C8B512"/>
<stop offset="1" stop-color="#DCB71B"/>
</linearGradient>
<linearGradient id="paint4_linear_344_111" x1="89.4623" y1="19.4308" x2="123.061" y2="38.8615" gradientUnits="userSpaceOnUse">
<stop stop-color="#D3C01A"/>
<stop offset="0.0001" stop-color="#C8B512"/>
<stop offset="1" stop-color="#DCB71B"/>
</linearGradient>
</defs>
</svg>
